<?xml version="1.0" standalone="no"?>
<!DOCTYPE svg PUBLIC "-//W3C//DTD SVG 20010904//EN"
 "http://www.w3.org/TR/2001/REC-SVG-20010904/DTD/svg10.dtd">
<svg version="1.0" xmlns="http://www.w3.org/2000/svg"
 width="245.000000pt" height="245.000000pt" viewBox="0 0 245.000000 245.000000"
 preserveAspectRatio="xMidYMid meet">
<metadata>
Created by potrace 1.11, written by Peter Selinger 2001-2013
</metadata>
<g transform="translate(0.000000,245.000000) scale(0.100000,-0.100000)"
fill="#000000" stroke="none">
<path d="M0 1230 l0 -1200 1225 0 1225 0 0 1200 0 1200 -1225 0 -1225 0 0
-1200z m1548 469 c66 -18 166 -61 182 -80 3 -3 13 -8 23 -12 20 -8 63 -95 106
-221 46 -132 74 -272 85 -422 l6 -82 -50 -45 c-75 -68 -155 -104 -266 -122
-38 -6 -43 -4 -68 25 -14 17 -26 37 -26 43 0 7 27 25 60 41 55 27 141 109 128
122 -3 2 -32 -8 -64 -24 -153 -74 -265 -102 -412 -102 -151 0 -289 34 -430
105 -30 15 -56 25 -59 22 -18 -19 93 -113 163 -139 l33 -11 -30 -44 c-33 -47
-37 -48 -124 -29 -91 20 -150 51 -210 107 -51 48 -55 55 -55 98 0 140 56 393
120 546 52 123 56 128 155 178 54 27 163 62 171 55 2 -3 -27 -17 -64 -32 -66
-26 -199 -112 -189 -123 3 -2 46 11 95 31 50 19 103 38 118 41 114 24 248 44
295 45 112 0 311 -48 472 -115 34 -14 7 20 -40 50 -69 44 -111 66 -178 91 -76
29 -49 30 53 3z"/>
<path d="M1198 1566 c-61 -22 -89 -45 -110 -93 -23 -53 -19 -108 13 -160 l20
-32 -33 -58 c-25 -42 -41 -59 -63 -65 -38 -10 -55 -33 -55 -74 0 -55 48 -85
101 -64 31 13 45 45 36 81 -4 13 13 50 50 111 44 71 53 92 42 99 -8 5 -18 9
-22 9 -16 0 -39 73 -33 104 10 51 43 76 97 76 40 0 51 -4 73 -31 22 -26 29
-44 28 -79 0 -3 -3 -14 -6 -26 -5 -15 0 -24 20 -34 23 -13 27 -13 40 5 21 29
17 101 -8 147 -23 40 -80 81 -128 91 -14 3 -42 0 -62 -7z"/>
<path d="M1192 1457 c-39 -42 -25 -105 28 -122 11 -4 38 -38 60 -78 59 -106
52 -100 88 -81 26 13 38 13 67 4 75 -25 98 -104 47 -161 -23 -26 -36 -32 -71
-32 -28 0 -52 8 -71 22 -34 25 -39 25 -64 6 -19 -15 -19 -15 5 -41 13 -14 36
-32 51 -40 35 -18 121 -18 158 1 46 24 82 79 88 134 9 96 -62 171 -168 181
-55 5 -55 5 -83 57 -22 42 -26 57 -17 72 20 39 -26 101 -75 101 -12 0 -31 -10
-43 -23z"/>
<path d="M998 1250 c-112 -32 -163 -174 -94 -265 36 -47 74 -65 139 -65 67 0
112 28 141 87 l21 42 63 1 c49 0 70 -5 89 -20 34 -27 69 -25 98 5 32 31 32 69
-1 102 -20 20 -31 24 -57 19 -18 -3 -37 -13 -43 -21 -8 -10 -37 -15 -110 -17
l-99 -3 -6 -38 c-11 -70 -73 -108 -138 -86 -38 13 -61 49 -61 95 0 28 8 44 34
70 19 19 41 34 50 34 11 0 16 9 16 29 0 36 -7 41 -42 31z"/>
</g>
</svg>
